<svg width="20" height="40" viewBox="0 0 20 40" fill="none" xmlns="http://www.w3.org/2000/svg">
<path d="M10.5235 39.7687L19.5427 31.6515C19.7339 31.4783 19.8421 31.2366 19.8421 30.9805V25.569C19.8421 25.2136 19.6329 24.8908 19.3082 24.7447C18.9817 24.6003 18.6011 24.6599 18.3377 24.898L9.92107 32.4722L1.50623 24.898C1.24107 24.6599 0.860464 24.5985 0.535776 24.7447C0.209284 24.8908 4.00543e-05 25.2136 4.00543e-05 25.569V30.9805C4.00543e-05 31.2366 0.110073 31.4783 0.29767 31.6515L9.31679 39.7687C9.65952 40.0772 10.1826 40.0772 10.5235 39.7687Z" fill="white"/>
<path d="M10.5235 28.0439L19.5427 19.9266C19.7339 19.7535 19.8421 19.5118 19.8421 19.2556V13.8441C19.8421 13.4888 19.6329 13.1659 19.3082 13.0198C18.9817 12.8755 18.6011 12.935 18.3377 13.1731L9.92107 20.7474L1.50623 13.1731C1.24107 12.935 0.860464 12.8737 0.535776 13.0198C0.209284 13.1659 4.00543e-05 13.4888 4.00543e-05 13.8441V19.2556C4.00543e-05 19.5118 0.110073 19.7535 0.29767 19.9266L9.31679 28.0439C9.65952 28.3523 10.1826 28.3523 10.5235 28.0439Z" fill="white" fill-opacity="0.4"/>
<path d="M10.5235 15.1026L19.5427 6.98542C19.7339 6.81225 19.8421 6.57054 19.8421 6.3144V0.902926C19.8421 0.547573 19.6329 0.224688 19.3082 0.0785787C18.9817 -0.0657272 18.6011 -0.00620105 18.3377 0.231904L9.92107 7.80616L1.50623 0.231904C1.24107 -0.00620105 0.860464 -0.0675311 0.535776 0.0785787C0.209284 0.224688 4.00543e-05 0.547573 4.00543e-05 0.902926V6.3144C4.00543e-05 6.57054 0.110073 6.81225 0.29767 6.98542L9.31679 15.1026C9.65952 15.4111 10.1826 15.4111 10.5235 15.1026Z" fill="white" fill-opacity="0.1"/>
</svg>
